<?xml version="1.0" encoding="utf-8"?>
<!-- Generator: Adobe Illustrator 17.1.0, SVG Export Plug-In . SVG Version: 6.00 Build 0)  -->
<!DOCTYPE svg PUBLIC "-//W3C//DTD SVG 1.1//EN" "http://www.w3.org/Graphics/SVG/1.1/DTD/svg11.dtd">
<svg version="1.1" xmlns="http://www.w3.org/2000/svg" xmlns:xlink="http://www.w3.org/1999/xlink" x="0px" y="0px"
	 viewBox="0 0 73.9 117.7" enable-background="new 0 0 73.9 117.7" xml:space="preserve">
<g id="Layer_1" display="none">
	<g display="inline">
		<line fill="#010101" stroke="#ED1C24" stroke-width="6.12" stroke-linecap="round" x1="22.8" y1="16.7" x2="22.8" y2="81"/>
	</g>
	<g display="inline">
		<rect id="connector0pin_7_" x="-63.4" y="36.6" fill="none" width="0.6" height="0.6"/>
		<rect id="connector1pin_6_" x="-78.9" y="36.6" fill="none" width="0.6" height="0.6"/>
		
			<line id="connector0leg_5_" fill="none" stroke="#8C8C8C" stroke-width="2.094" stroke-linecap="round" x1="-58.8" y1="36.6" x2="-59.4" y2="36.6"/>
		
			<line id="connector1leg_5_" fill="none" stroke="#8C8C8C" stroke-width="2.094" stroke-linecap="round" x1="-79.7" y1="36.6" x2="-80.3" y2="36.6"/>
		<rect id="rect7_2_" x="-80.3" y="36" fill="#8C8C8C" width="21.8" height="1.3"/>
		<path id="Body_2_" fill="#A25725" d="M-68.3,38.8h1.3c0.3,0,0.2-4.4,0-4.4h-1.3c-0.2,0-6.8,0-7,0h-1.3c-0.3,0-0.3,4.4,0,4.4h1.3
			C-75.1,38.8-68.6,38.8-68.3,38.8z"/>
		<rect id="rect16_2_" x="-69.9" y="34.4" opacity="0.9" enable-background="new    " width="1.2" height="4.4"/>
		<path id="Reflex_2_" opacity="0.4" fill="#FFFFFF" enable-background="new    " d="M-67.2,38.6c-0.4,0-0.7,0-1.1,0
			c-0.4,0-6.6,0-7,0c0,0-0.1,0-0.3,0c-0.3,0-0.6,0-0.8,0c-0.2,0-0.7-0.2,0.2-0.2c0.7,0,0.4,0,0.9,0c0.4,0,6.6,0,7,0
			c0.4,0,0.7,0,1.1,0C-67,38.4-66.8,38.6-67.2,38.6z"/>
		<path id="Shaddow_2_" opacity="0.6" fill="#F2F2F2" enable-background="new    " d="M-76.6,34.4c0.4,0,0.9,0,1.3,0
			c0.5,0,7.9,0,8.3,0c0.1,0,0.1,0.4,0.1,0.4c-0.8,0-1,0-1.4,0c-0.4,0-6.6,0-7,0c-0.4,0-1,0-1.5,0C-76.8,34.9-76.7,34.4-76.6,34.4z"
			/>
	</g>
	<g display="inline">
		<rect id="connector0pin_3_" x="-65.4" y="47.3" fill="none" width="0.6" height="0.6"/>
		<rect id="connector1pin_3_" x="-81" y="47.3" fill="none" width="0.6" height="0.6"/>
		
			<line id="connector0leg_3_" fill="none" stroke="#8C8C8C" stroke-width="2.094" stroke-linecap="round" x1="-67.3" y1="47.3" x2="-68" y2="47.3"/>
		
			<line id="connector1leg_3_" fill="none" stroke="#8C8C8C" stroke-width="2.094" stroke-linecap="round" x1="-80.6" y1="47.3" x2="-81.3" y2="47.3"/>
		<rect id="rect7_1_" x="-81.7" y="46.6" fill="#8C8C8C" width="15.6" height="1.3"/>
		<path id="Body_1_" fill="#A25725" d="M-70.4,49.5h1.3c0.3,0,0.2-4.4,0-4.4h-1.3c-0.2,0-6.8,0-7,0h-1.3c-0.3,0-0.3,4.4,0,4.4h1.3
			C-77.1,49.5-70.6,49.5-70.4,49.5z"/>
		<rect id="rect16_1_" x="-72" y="45.1" opacity="0.9" enable-background="new    " width="1.2" height="4.4"/>
		<path id="Reflex_1_" opacity="0.4" fill="#FFFFFF" enable-background="new    " d="M-69.2,49.2c-0.4,0-0.7,0-1.1,0
			c-0.4,0-6.6,0-7,0c0,0-0.1,0-0.3,0c-0.3,0-0.6,0-0.8,0c-0.2,0-0.7-0.2,0.2-0.2c0.7,0,0.4,0,0.9,0c0.4,0,6.6,0,7,0
			c0.4,0,0.7,0,1.1,0C-69,49-68.8,49.2-69.2,49.2z"/>
		<path id="Shaddow_1_" opacity="0.6" fill="#F2F2F2" enable-background="new    " d="M-78.7,45.1c0.4,0,0.9,0,1.3,0
			c0.5,0,7.9,0,8.3,0c0.1,0,0.1,0.4,0.1,0.4c-0.8,0-1,0-1.4,0c-0.4,0-6.6,0-7,0c-0.4,0-1,0-1.5,0C-78.8,45.5-78.8,45.1-78.7,45.1z"
			/>
	</g>
	<g display="inline">
		<rect id="connector0pin_2_" x="-69.5" y="81.6" fill="none" width="0.7" height="0.7"/>
		<rect id="connector1pin_2_" x="-69.5" y="52.1" fill="none" width="0.7" height="0.7"/>
		
			<line id="connector0leg_2_" fill="none" stroke="#8C8C8C" stroke-width="2.91" stroke-linecap="round" x1="-69.8" y1="81.6" x2="-69.8" y2="80.6"/>
		
			<line id="connector1leg_2_" fill="none" stroke="#8C8C8C" stroke-width="2.91" stroke-linecap="round" x1="-69.8" y1="52.8" x2="-69.8" y2="53.9"/>
		<path fill="none" stroke="#8C8C8C" stroke-width="2.91" d="M-69.8,81.6V53.2"/>
		<ellipse fill="#D9B477" cx="-69.8" cy="58.7" rx="3.4" ry="2.6"/>
		<ellipse fill="#D9B477" cx="-69.8" cy="76" rx="3.4" ry="2.6"/>
		<path id="body_2_" fill="#D9B477" d="M-66.7,72.4c0.2,0.4,0.3,1,0.3,1.4v2c0,0.4-0.3,0.7-0.7,0.7h-5.4c-0.4,0-0.7-0.3-0.7-0.7v-2
			c0-0.4,0.1-1,0.3-1.4l0-0.1c0.2-0.4,0.3-1,0.3-1.4v-7.2c0-0.4-0.1-1-0.3-1.4l0-0.1c-0.2-0.4-0.3-1-0.3-1.4v-2
			c0-0.4,0.3-0.7,0.7-0.7h5.4c0.4,0,0.7,0.3,0.7,0.7v2c0,0.4-0.1,1-0.3,1.4l0,0.1c-0.2,0.4-0.3,1-0.3,1.4V71
			C-67,71.4-66.9,72-66.7,72.4L-66.7,72.4z"/>
		<rect id="gold_band_2_" x="-73.2" y="59.9" fill="#AD9F4E" width="6.8" height="0.7"/>
		<rect id="band_rd_multiplier_2_" x="-72.5" y="64.6" width="5.5" height="1.9"/>
		<rect id="band_2_nd_2_" x="-72.5" y="68.3" fill="#939598" width="5.5" height="1.9"/>
		<path id="band_1_st_2_" fill="#00AEEF" d="M-66.8,72c0,0.1,0.1,0.2,0.1,0.3l0,0.1c0.2,0.4,0.3,1,0.3,1.4v0.1h-6.8v-0.1
			c0-0.4,0.1-1,0.3-1.4l0-0.1c0-0.1,0.1-0.2,0.1-0.3H-66.8z"/>
		<path id="Shadow_2_" opacity="0.3" fill="#010101" enable-background="new    " d="M-70.3,58.9L-70.3,58.9c-0.4,0-0.7,0.1-0.7,0.3
			v1.9c0,0.4,0.1,1,0.1,1.3l0,0.1c0.1,0.3,0.1,0.9,0.1,1.3v6.9c0,0.4-0.1,1-0.1,1.3l0,0.1c-0.1,0.3-0.1,0.9-0.1,1.3v0.3v1v0.3
			c0,0.4-0.3,0.7-0.6,0.7h-0.2H-72h-0.2c-0.4,0-0.6-0.3-0.6-0.7v-1.6c0-0.4,0.1-1,0.3-1.3l0-0.1c0.1-0.3,0.3-1,0.3-1.3v-6.9
			c0-0.4-0.1-1-0.3-1.3l0-0.1c-0.1-0.3-0.3-0.9-0.3-1.3v-2.2c0-0.4,0.4-0.7,0.4-0.7s0.4-0.6,1.2-0.7c0.7-0.1,0.7-0.1,1.5-0.1
			c1.2,0,0.9,0.8,0.9,0.8C-68.9,58.5-69.2,58.9-70.3,58.9z"/>
		
			<rect id="ShadowExtra_2_" x="-72.8" y="59.9" opacity="0.4" fill="#010101" enable-background="new    " width="3.2" height="0.7"/>
		<path id="ReflexRight_2_" opacity="0.25" fill="#FFFFFF" enable-background="new    " d="M-67.2,62.9c0-0.2,0.1-0.5,0.2-0.7
			c0.1-0.2,0.1-0.6,0.1-1v-1.5c0-0.2-0.2-0.2-0.4-0.2c-0.1,0-0.4,0-0.4,0.2v3.1c0,0.1,0.1,0.2,0.2,0.2C-67.4,63.1-67.2,63-67.2,62.9
			z"/>
		<circle id="ReflexLeft_2_" opacity="0.35" fill="#FFFFFF" enable-background="new    " cx="-67.3" cy="75.7" r="0.4"/>
		
			<rect id="Reflex_gold_2_" x="-68.2" y="59.9" opacity="0.5" fill="#F8ED39" enable-background="new    " width="1.6" height="0.7"/>
		
			<rect id="Reflex_extra_2_" x="-67.7" y="59.9" opacity="0.5" fill="#FFFFFF" enable-background="new    " width="0.7" height="0.7"/>
	</g>
	<g display="inline">
		
			<rect id="connector0pin_1_" x="-63.9" y="82" transform="matrix(-0.1349 0.9909 -0.9909 -0.1349 9.4509 156.4724)" fill="none" width="0.7" height="0.7"/>
		
			<rect id="connector1pin_1_" x="-60" y="52.8" transform="matrix(-0.1349 0.9909 -0.9909 -0.1349 -14.9607 119.4031)" fill="none" width="0.7" height="0.7"/>
		
			<line id="connector0leg_1_" fill="none" stroke="#8C8C8C" stroke-width="2.91" stroke-linecap="round" x1="-62.9" y1="82.1" x2="-62.7" y2="81.1"/>
		
			<line id="connector1leg_1_" fill="none" stroke="#8C8C8C" stroke-width="2.91" stroke-linecap="round" x1="-59" y1="53.6" x2="-59.1" y2="54.6"/>
		<path fill="none" stroke="#8C8C8C" stroke-width="2.91" d="M-62.9,82.1L-59,54"/>
		
			<ellipse transform="matrix(-0.1349 0.9909 -0.9909 -0.1349 -8.9366 126.6671)" fill="#D9B477" cx="-59.8" cy="59.4" rx="2.6" ry="3.4"/>
		
			<ellipse transform="matrix(-0.1349 0.9909 -0.9909 -0.1349 5.358 148.487)" fill="#D9B477" cx="-62.1" cy="76.6" rx="2.6" ry="3.4"/>
		<path id="body_1_" fill="#D9B477" d="M-64.7,72.6c-0.2,0.3-0.4,0.9-0.5,1.3l-0.3,2c-0.1,0.4,0.2,0.8,0.6,0.8l5.3,0.7
			c0.4,0.1,0.8-0.2,0.8-0.6l0.3-2c0.1-0.4,0-1-0.1-1.4l0-0.1c-0.1-0.4-0.2-1-0.1-1.4l1-7.1c0.1-0.4,0.3-1,0.5-1.3l0-0.1
			c0.2-0.3,0.4-0.9,0.5-1.3l0.3-2c0.1-0.4-0.2-0.8-0.6-0.8l-5.3-0.7c-0.4-0.1-0.8,0.2-0.8,0.6l-0.3,2c-0.1,0.4,0,1,0.1,1.4l0,0.1
			c0.1,0.4,0.2,1,0.1,1.4l-1,7.1C-64.2,71.6-64.5,72.2-64.7,72.6L-64.7,72.6z"/>
		
			<rect id="gold_band_1_" x="-60.4" y="57.6" transform="matrix(-0.1349 0.9909 -0.9909 -0.1349 -7.6757 128.6943)" fill="#AD9F4E" width="0.7" height="6.8"/>
		
			<rect id="band_rd_multiplier_1_" x="-61.6" y="63.5" transform="matrix(-0.1349 0.9909 -0.9909 -0.1349 -3.3022 135.3256)" width="1.9" height="5.5"/>
		
			<rect id="band_2_nd_1_" x="-62.1" y="67.1" transform="matrix(-0.1349 0.9909 -0.9909 -0.1349 -0.2362 139.9814)" fill="#939598" width="1.9" height="5.5"/>
		<path id="band_1_st_1_" fill="#00AEEF" d="M-64.5,72.2c-0.1,0.1-0.1,0.2-0.2,0.3l0,0.1c-0.2,0.3-0.4,0.9-0.5,1.3l0,0.1l6.7,0.9
			l0-0.1c0.1-0.4,0-1-0.1-1.4l0-0.1c0-0.1-0.1-0.2-0.1-0.3L-64.5,72.2z"/>
		<path id="Shadow_1_" opacity="0.3" fill="#010101" enable-background="new    " d="M-59.3,59.7L-59.3,59.7
			c0.4,0.1,0.7,0.2,0.7,0.4l-0.3,1.9c-0.1,0.4-0.2,1-0.3,1.3l0,0.1c-0.1,0.3-0.2,0.9-0.3,1.3l-0.9,6.9c-0.1,0.4-0.1,1-0.1,1.3l0,0.1
			c0,0.4,0,1-0.1,1.3l0,0.3l-0.1,1l0,0.3c-0.1,0.4,0.2,0.7,0.5,0.8l0.2,0l0.2,0l0.2,0c0.4,0,0.7-0.2,0.7-0.6l0.2-1.6
			c0.1-0.4,0-1-0.1-1.4l0-0.1c-0.1-0.4-0.1-1-0.1-1.4l0.9-6.9c0.1-0.4,0.3-1,0.4-1.3l0-0.1c0.2-0.3,0.4-0.9,0.4-1.3l0.3-2.2
			c0.1-0.4-0.3-0.7-0.3-0.7s-0.3-0.7-1.1-0.9c-0.7-0.2-0.7-0.2-1.4-0.3c-1.2-0.2-1,0.7-1,0.7C-60.6,59.1-60.4,59.6-59.3,59.7z"/>
		
			<rect id="ShadowExtra_1_" x="-58.9" y="59.6" transform="matrix(-0.1349 0.9909 -0.9909 -0.1349 -5.828 127.4775)" opacity="0.4" fill="#010101" enable-background="new    " width="0.7" height="3.2"/>
		<path id="ReflexRight_1_" opacity="0.25" fill="#FFFFFF" enable-background="new    " d="M-62.9,63.3c0-0.2,0-0.5-0.1-0.7
			c-0.1-0.2-0.1-0.6,0-1l0.2-1.4c0-0.2,0.3-0.2,0.4-0.2c0.1,0,0.4,0.1,0.3,0.3l-0.4,3c0,0.1-0.1,0.2-0.3,0.2
			C-62.7,63.5-62.9,63.4-62.9,63.3z"/>
		<circle id="ReflexLeft_1_" opacity="0.35" fill="#FFFFFF" enable-background="new    " cx="-64.5" cy="75.9" r="0.4"/>
		
			<rect id="Reflex_gold_1_" x="-62.7" y="59.9" transform="matrix(-0.1349 0.9909 -0.9909 -0.1349 -10.6427 130.6482)" opacity="0.5" fill="#F8ED39" enable-background="new    " width="0.7" height="1.6"/>
		
			<rect id="Reflex_extra_1_" x="-62.8" y="60.3" transform="matrix(-0.1349 0.9909 -0.9909 -0.1349 -10.7378 130.7108)" opacity="0.5" fill="#FFFFFF" enable-background="new    " width="0.7" height="0.7"/>
	</g>
	<g display="inline">
		
			<rect id="connector0pin_6_" x="-48.7" y="75.4" transform="matrix(0.2643 0.9644 -0.9644 0.2643 37.7336 102.2787)" fill="none" width="1" height="1"/>
		
			<line id="connector0leg_4_" fill="none" stroke="#8C8C8C" stroke-width="2.91" stroke-linecap="round" x1="-47.7" y1="73.7" x2="-48.1" y2="72.3"/>
		
			<line id="connector1leg_4_" fill="none" stroke="#8C8C8C" stroke-width="2.91" stroke-linecap="round" x1="-57.8" y1="37.7" x2="-57.4" y2="39.2"/>
		<path fill="none" stroke="#8C8C8C" stroke-width="2.91" d="M-47.7,73.7l-9.8-35.8"/>
		<path id="body_3_" fill="#D9B477" d="M-55.1,63.7c-0.1,0.6,0,1.5,0.1,2l0.7,2.7c0.1,0.5,0.7,0.9,1.3,0.7l7.4-2
			c0.5-0.1,0.9-0.7,0.7-1.3l-0.7-2.7c-0.1-0.5-0.6-1.3-0.9-1.8l-0.1-0.1c-0.4-0.4-0.8-1.2-0.9-1.8l-2.7-9.9c-0.1-0.5-0.2-1.4-0.1-2
			l0-0.1c0.1-0.6,0-1.5-0.1-2l-0.7-2.7c-0.1-0.5-0.7-0.9-1.3-0.7l-7.4,2c-0.5,0.1-0.9,0.7-0.7,1.3l0.7,2.7c0.1,0.5,0.6,1.3,0.9,1.8
			l0.1,0.1c0.4,0.4,0.8,1.2,0.9,1.8l2.7,9.9c0.1,0.5,0.2,1.4,0.1,2L-55.1,63.7z"/>
		
			<rect id="gold_band_3_" x="-56" y="41" transform="matrix(0.2643 0.9644 -0.9644 0.2643 3.4081 87.1979)" fill="#AD9F4E" width="1" height="9.7"/>
		
			<rect id="band_rd_multiplier_3_" x="-53.6" y="51.3" transform="matrix(0.2643 0.9644 -0.9644 0.2643 14.395 91.6318)" fill="#ED1C24" width="1.5" height="7.9"/>
		
			<rect id="band_2_nd_3_" x="-52.8" y="54.9" transform="matrix(0.2643 0.9644 -0.9644 0.2643 18.5523 93.3121)" fill="#009444" width="1.7" height="7.9"/>
		<path id="band_1_st_3_" fill="#754C29" d="M-55.1,63.1c0,0.2,0,0.3,0,0.5l0,0.1c-0.1,0.6,0,1.5,0.1,2l0,0.1l9.4-2.6l0-0.1
			c-0.1-0.5-0.6-1.3-0.9-1.8l-0.1-0.1c-0.1-0.1-0.2-0.2-0.3-0.4L-55.1,63.1z"/>
		<path id="Shadow_3_" opacity="0.3" fill="#010101" enable-background="new    " d="M-55.3,43.8L-55.3,43.8c0.5-0.1,1-0.1,1.1,0.1
			l0.7,2.6c0.1,0.5,0.3,1.4,0.3,1.9l0,0.1c0,0.5,0.2,1.4,0.3,1.9l2.6,9.6c0.1,0.5,0.4,1.3,0.7,1.8l0,0.1c0.2,0.5,0.5,1.3,0.7,1.8
			l0.1,0.4l0.4,1.4l0.1,0.4c0.1,0.5,0.7,0.9,1.2,0.7l0.3-0.1l0.2-0.1l0.2-0.1c0.5-0.1,0.8-0.7,0.6-1.2l-0.6-2.2
			c-0.1-0.5-0.5-1.3-0.9-1.7l-0.1-0.1c-0.3-0.4-0.7-1.2-0.9-1.7l-2.6-9.6c-0.1-0.5-0.2-1.4-0.1-1.9l0-0.1c0.1-0.5,0-1.4-0.1-1.9
			l-0.8-3.1c-0.1-0.5-0.7-0.9-1.2-0.7l-0.7,0.2l-1.3,0.4l-2.5,0.7C-57.3,43.7-56.7,44.2-55.3,43.8z"/>
		
			<rect id="ShadowExtra_3_" x="-53.9" y="43" transform="matrix(0.2643 0.9644 -0.9644 0.2643 4.3606 84.8413)" opacity="0.4" fill="#010101" enable-background="new    " width="1" height="4.5"/>
		<path id="ReflexRight_3_" opacity="0.25" fill="#FFFFFF" enable-background="new    " d="M-57.9,50.4c-0.1-0.3-0.3-0.6-0.5-0.8
			c-0.2-0.2-0.4-0.7-0.6-1.3l-0.6-2c-0.1-0.3,0.3-0.4,0.4-0.5c0.2,0,0.5-0.1,0.6,0.2l1.2,4.2c0,0.1-0.1,0.4-0.2,0.4
			C-57.7,50.6-57.9,50.6-57.9,50.4z"/>
		<circle id="ReflexLeft_3_" opacity="0.35" fill="#FFFFFF" enable-background="new    " cx="-53" cy="67.9" r="0.6"/>
		
			<rect id="Reflex_gold_3_" x="-59.2" y="45.6" transform="matrix(0.2643 0.9644 -0.9644 0.2643 1.8787 90.982)" opacity="0.5" fill="#F8ED39" enable-background="new    " width="1" height="2.3"/>
		
			<rect id="Reflex_extra_3_" x="-59.3" y="46.2" transform="matrix(0.2643 0.9644 -0.9644 0.2643 1.8296 91.1033)" opacity="0.5" fill="#FFFFFF" enable-background="new    " width="1" height="1.1"/>
	</g>
	<g display="inline">
		<line fill="#010101" stroke="#ED1C24" stroke-width="6.12" stroke-linecap="round" x1="22.6" y1="81" x2="53.3" y2="81"/>
	</g>
	<g display="inline">
		<line fill="#010101" stroke="#010101" stroke-width="6.12" stroke-linecap="round" x1="62.3" y1="25.1" x2="62.3" y2="109.7"/>
	</g>
	<g display="inline">
		<line fill="#010101" stroke="#010101" stroke-width="6.12" stroke-linecap="round" x1="58.3" y1="72.4" x2="30.8" y2="72.4"/>
	</g>
	<g display="inline">
		<line fill="#010101" stroke="#ED1C24" stroke-width="6.12" stroke-linecap="round" x1="54.3" y1="81" x2="54.3" y2="93.5"/>
	</g>
	<g display="inline">
		<line fill="#010101" stroke="#939598" stroke-width="6.12" stroke-linecap="round" x1="47" y1="52.7" x2="47" y2="62.9"/>
	</g>
	<g display="inline">
		<line fill="#39B54A" stroke="#39B54A" stroke-width="6.12" stroke-linecap="round" x1="39.2" y1="52.7" x2="39.2" y2="62.3"/>
	</g>
	<g display="inline">
		<line fill="#39B54A" stroke="#39B54A" stroke-width="6.12" stroke-linecap="round" x1="46.6" y1="89.7" x2="46.6" y2="99.3"/>
	</g>
	
		<rect x="25.6" y="97.8" display="inline" fill="#39B54A" stroke="#39B54A" stroke-width="6.12" stroke-linecap="round" width="21" height="13.6"/>
	<rect x="52.6" y="99.3" display="inline" width="12.1" height="14.7"/>
	<g display="inline">
		<line fill="#010101" stroke="#010101" stroke-width="6.12" stroke-linecap="round" x1="30.6" y1="61.9" x2="30.6" y2="72.4"/>
	</g>
	<g display="inline">
		<g>
			<g>
				<rect id="connector0pin_5_" x="51.6" y="62.3" fill="#8C8C8C" width="2.1" height="3.1"/>
				<rect id="connector1pin_5_" x="44.6" y="62.3" fill="#8C8C8C" width="2.1" height="3.1"/>
				<rect id="connector2pin_2_" x="37.5" y="62.3" fill="#8C8C8C" width="2.1" height="3.1"/>
				<rect id="connector3pin_2_" x="30.5" y="62.3" fill="#8C8C8C" width="2.1" height="3.1"/>
				<rect id="connector4pin_2_" x="30.5" y="82.4" fill="#8C8C8C" width="2.1" height="3.1"/>
				<rect id="connector5pin_2_" x="37.5" y="82.4" fill="#8C8C8C" width="2.1" height="3.1"/>
				<rect id="connector6pin_2_" x="44.6" y="82.4" fill="#8C8C8C" width="2.1" height="3.1"/>
				<rect id="connector7pin_2_" x="51.6" y="82.4" fill="#8C8C8C" width="2.1" height="3.1"/>
				<rect id="connector0terminal_1_" x="51.6" y="62.3" fill="#8C8C8C" width="2.1" height="2.1"/>
				<rect id="connector1terminal_1_" x="44.6" y="62.3" fill="#8C8C8C" width="2.1" height="2.1"/>
				<rect id="connector2terminal_1_" x="37.5" y="62.3" fill="#8C8C8C" width="2.1" height="2.1"/>
				<rect id="connector3terminal_1_" x="30.5" y="62.3" fill="#8C8C8C" width="2.1" height="2.1"/>
				<rect id="connector4terminal_1_" x="30.5" y="83.4" fill="#8C8C8C" width="2.1" height="2.1"/>
				<rect id="connector5terminal_1_" x="37.5" y="83.4" fill="#8C8C8C" width="2.1" height="2.1"/>
				<rect id="connector6terminal_1_" x="44.6" y="83.4" fill="#8C8C8C" width="2.1" height="2.1"/>
				<rect id="connector7terminal_1_" x="51.6" y="83.4" fill="#8C8C8C" width="2.1" height="2.1"/>
				<g id="breadboard_2_">
					<rect id="rect20_1_" x="51.6" y="62.3" fill="#8C8C8C" width="2.1" height="4.7"/>
					<rect id="rect22_1_" x="44.6" y="62.3" fill="#8C8C8C" width="2.1" height="4.7"/>
					<rect id="rect24_1_" x="37.5" y="62.3" fill="#8C8C8C" width="2.1" height="4.7"/>
					<rect id="rect26_1_" x="30.5" y="62.3" fill="#8C8C8C" width="2.1" height="4.7"/>
					<rect id="rect28_1_" x="51.6" y="80.8" fill="#8C8C8C" width="2.1" height="4.7"/>
					<rect id="rect30_1_" x="44.6" y="80.8" fill="#8C8C8C" width="2.1" height="4.7"/>
					<rect id="rect32_1_" x="37.5" y="80.8" fill="#8C8C8C" width="2.1" height="4.7"/>
					<rect id="rect34_1_" x="30.5" y="80.8" fill="#8C8C8C" width="2.1" height="4.7"/>
					<polygon id="polygon36_1_" fill="#3E3E3E" points="56.2,83.4 28.1,83.4 28.6,77.4 56.2,77.4 					"/>
					<polygon id="polygon38_1_" fill="#010101" points="56.2,70.4 28.6,70.4 28.1,64.4 56.2,64.4 					"/>
					<polygon id="polygon40_1_" fill="#8C8C8C" points="50.2,82.4 50.2,83.2 51.6,83.8 53.7,83.8 53.7,82.4 					"/>
					<polygon id="polygon42_1_" fill="#8C8C8C" points="43.2,82.4 43.2,83.2 44.6,83.8 46.7,83.8 48.1,83.2 48.1,82.4 					"/>
					<polygon id="polygon44_1_" fill="#8C8C8C" points="30.5,82.4 30.5,83.8 32.6,83.8 34,83.2 34,82.4 					"/>
					<polygon id="polygon46_1_" fill="#8C8C8C" points="36.1,82.4 36.1,83.2 37.5,83.8 39.6,83.8 41.1,83.2 41.1,82.4 					"/>
					<polygon id="polygon48_1_" fill="#8C8C8C" points="53.7,65.3 53.7,63.9 51.6,63.9 50.2,64.6 50.2,65.3 					"/>
					<polygon id="polygon50_1_" fill="#8C8C8C" points="34,65.3 34,64.6 32.6,63.9 30.5,63.9 30.5,65.3 					"/>
					<polygon id="polygon52_1_" fill="#8C8C8C" points="48.1,65.3 48.1,64.6 46.7,63.9 44.6,63.9 43.2,64.6 43.2,65.3 					"/>
					<polygon id="polygon54_1_" fill="#8C8C8C" points="41.1,65.3 41.1,64.6 39.6,63.9 37.5,63.9 36.1,64.6 36.1,65.3 					"/>
					<polygon id="polygon56_1_" fill="#161616" points="28.1,83.4 28.6,81.6 29.6,81.6 29.6,66.1 28.6,66.1 28.1,64.4 					"/>
					<polygon id="polygon58_1_" fill="#1F2020" points="56.2,83.4 55.6,81.6 55.6,77.4 52.7,77.4 52.7,70.4 55.6,70.4 55.6,66.1 
						56.2,64.4 					"/>
					<polygon id="polygon60_1_" fill="#1C1C1C" points="52.7,77.4 55.6,77.4 55.8,75.9 55.8,73.9 52.7,73.9 					"/>
					<polygon id="polygon62_1_" fill="#383938" points="55.6,70.3 52.7,70.3 52.7,73.9 55.8,73.9 55.8,71.8 					"/>
					<path id="path64_1_" fill="#303030" d="M55.6,81.6v-4.2c-1.7-0.3-2.9-1.8-2.9-3.5c0-1.8,1.3-3.2,2.9-3.6v-4.2H28.6v15.5H55.6z"
						/>
					<path id="path66_1_" fill="#272626" d="M55.8,75.9v-4.1c-1,0.1-1.8,1-1.8,2.1C53.9,75,54.7,75.8,55.8,75.9z"/>
					<circle id="circle68_1_" fill="#212121" cx="51.6" cy="69" r="1.4"/>
				</g>
			</g>
			<g id="breadboard_1_">
				
					<sodipodi:namedview  pagecolor="#ffffff" borderopacity="1" bordercolor="#666666" gridtolerance="10" guidetolerance="10" showgrid="false" xmlns:sodipodi="http://sodipodi.sourceforge.net/DTD/sodipodi-0.dtd" objecttolerance="10" id="namedview5969">
					</sodipodi:namedview>
				<g id="icon_1_" transform="matrix(0.8,0,0,0.8,0,2.8)">
					<rect id="rect2544_2_" x="64.5" y="74.3" fill="#8C8C8C" width="2.6" height="3.9"/>
					<rect id="rect2546_2_" x="55.7" y="74.3" fill="#8C8C8C" width="2.6" height="3.9"/>
					<rect id="rect2548_2_" x="46.9" y="74.3" fill="#8C8C8C" width="2.6" height="3.9"/>
					<rect id="rect2550_1_" x="38.1" y="74.3" fill="#8C8C8C" width="2.6" height="3.9"/>
					<polygon id="polygon2564_1_" fill="#8C8C8C" points="62.7,99.5 62.7,100.5 64.5,101.3 67.1,101.3 67.1,99.5 					"/>
					<polygon id="polygon2572_2_" fill="#8C8C8C" points="67.1,78.2 67.1,76.4 64.5,76.4 62.7,77.3 62.7,78.2 					"/>
					<polygon id="polygon2574_2_" fill="#8C8C8C" points="42.5,78.2 42.5,77.3 40.8,76.4 38.1,76.4 38.1,78.2 					"/>
					<polygon id="polygon2576_2_" fill="#8C8C8C" points="60.1,78.2 60.1,77.3 58.3,76.4 55.7,76.4 54,77.3 54,78.2 					"/>
					<polygon id="polygon2578_2_" fill="#8C8C8C" points="51.3,78.2 51.3,77.3 49.6,76.4 46.9,76.4 45.2,77.3 45.2,78.2 					"/>
					<polygon id="polygon2572_1_" fill="#8C8C8C" points="38.1,99.5 38.1,101.3 40.8,101.3 42.5,100.5 42.5,99.5 					"/>
					<polygon id="polygon2574_1_" fill="#8C8C8C" points="62.7,99.5 62.7,100.5 64.5,101.3 67.1,101.3 67.1,99.5 					"/>
					<polygon id="polygon2576_1_" fill="#8C8C8C" points="45.2,99.5 45.2,100.5 46.9,101.3 49.6,101.3 51.3,100.5 51.3,99.5 					
						"/>
					<polygon id="polygon2578_1_" fill="#8C8C8C" points="54,99.5 54,100.5 55.7,101.3 58.3,101.3 60.1,100.5 60.1,99.5 					"/>
					<g id="g2602_1_">
						<g id="text6122_1_">
							
								<text id="tspan6124_1_" transform="matrix(-1.2182 0 0 -1.25 67.126 94.2389)" fill="#F3F3F3" font-family="'OCRAStd'" font-size="4.2569">attiny85</text>
						</g>
					</g>
					<rect id="rect2552_1_" x="64.5" y="99.5" fill="#8C8C8C" width="2.6" height="3.8"/>
					<rect id="rect2544_1_" x="38.1" y="99.5" fill="#8C8C8C" width="2.6" height="3.8"/>
					<rect id="rect2548_1_" x="55.7" y="99.5" fill="#8C8C8C" width="2.6" height="3.8"/>
					<rect id="rect2546_1_" x="46.9" y="99.5" fill="#8C8C8C" width="2.6" height="3.8"/>
				</g>
				<rect id="connector3pin_1_" x="30.5" y="62.3" fill="none" width="2.1" height="3.1"/>
				<rect id="connector4pin_1_" x="30.5" y="82.4" fill="none" width="2.1" height="3.1"/>
				<rect id="connector5pin_1_" x="37.5" y="82.4" fill="none" width="2.1" height="3.1"/>
				<rect id="connector6pin_1_" x="44.6" y="82.4" fill="none" width="2.1" height="3.1"/>
				<rect id="connector7pin_1_" x="51.6" y="82.4" fill="none" width="2.1" height="3.1"/>
				<rect id="connector0pin_4_" x="51.6" y="62.3" fill="none" width="2.1" height="3.1"/>
				<rect id="connector1pin_4_" x="44.6" y="62.3" fill="none" width="2.1" height="3.1"/>
				<rect id="connector2pin_1_" x="37.5" y="62.3" fill="none" width="2.1" height="3.1"/>
			</g>
		</g>
	</g>
	<rect x="59.6" y="13.6" display="inline" width="12.1" height="28.4"/>
	<rect x="13.6" y="13.6" display="inline" fill="#ED1C24" width="12.1" height="23"/>
	<rect x="29.1" y="13.6" display="inline" fill="#39B54A" width="12.1" height="23"/>
	<rect x="44.6" y="13.6" display="inline" fill="#939598" width="12.1" height="23"/>
	<path display="inline" fill="none" stroke="#000000" stroke-miterlimit="10" d="M77.9,106.7c0,6.6-5.4,12-12,12H20.3
		c-6.6,0-12-5.4-12-12v-88c0-6.6,5.4-12,12-12h45.7c6.6,0,12,5.4,12,12V106.7z"/>
</g>
<g id="Layer_2">
	<path fill="none" stroke="#000000" stroke-miterlimit="10" d="M71.8,103.2c0,6.6-5.4,12-12,12H14.1c-6.6,0-12-5.4-12-12v-88
		c0-6.6,5.4-12,12-12h45.7c6.6,0,12,5.4,12,12V103.2z"/>
	<line fill="#010101" stroke="#ED1C24" stroke-width="6.12" stroke-linecap="round" x1="16.7" y1="13.2" x2="16.7" y2="77.6"/>
	<line fill="#010101" stroke="#ED1C24" stroke-width="6.12" stroke-linecap="round" x1="16.5" y1="77.6" x2="47.2" y2="77.6"/>
	<line fill="#010101" stroke="#010101" stroke-width="6.12" stroke-linecap="round" x1="56.1" y1="21.7" x2="56.1" y2="106.2"/>
	<line fill="#010101" stroke="#010101" stroke-width="6.12" stroke-linecap="round" x1="52.1" y1="68.9" x2="24.7" y2="68.9"/>
	<line fill="#010101" stroke="#ED1C24" stroke-width="6.12" stroke-linecap="round" x1="48.2" y1="77.6" x2="48.2" y2="90"/>
	<line fill="#010101" stroke="#939598" stroke-width="6.12" stroke-linecap="round" x1="40.8" y1="49.3" x2="40.8" y2="59.5"/>
	<line fill="#39B54A" stroke="#39B54A" stroke-width="6.12" stroke-linecap="round" x1="33" y1="49.3" x2="33" y2="58.8"/>
	<line fill="#39B54A" stroke="#39B54A" stroke-width="6.12" stroke-linecap="round" x1="40.4" y1="86.3" x2="40.4" y2="95.8"/>
	<rect x="19.5" y="94.3" fill="#39B54A" stroke="#39B54A" stroke-width="6.12" stroke-linecap="round" width="21" height="13.6"/>
	<rect x="46.4" y="95.8" width="12.1" height="14.7"/>
	<line fill="#010101" stroke="#010101" stroke-width="6.12" stroke-linecap="round" x1="24.4" y1="58.5" x2="24.4" y2="68.9"/>
	<rect x="53.4" y="10.2" width="12.1" height="28.4"/>
	<rect x="7.4" y="10.2" fill="#ED1C24" width="12.1" height="23"/>
	<rect x="22.9" y="10.2" fill="#39B54A" width="12.1" height="23"/>
	<rect x="38.4" y="10.2" fill="#939598" width="12.1" height="23"/>
</g>
</svg>
